<svg width="669" height="674" viewBox="0 0 669 674" fill="none" xmlns="http://www.w3.org/2000/svg">
<path d="M105.219 100.884C77.3322 99.0093 56.2411 74.8718 58.1159 47.2192C60.225 19.3322 84.1282 -1.75885 112.015 0.115905C139.668 2.22501 160.759 26.1282 158.884 54.0152C157.009 81.6678 132.872 102.759 105.219 100.884Z" fill="url(#paint0_radial_157104_98)"/>
<g filter="url(#filter0_b_157104_98)">
<rect width="178" height="284" rx="20" transform="matrix(0.866025 0.5 -0.866025 0.5 362.359 322)" fill="url(#paint1_linear_157104_98)"/>
<rect x="-2.98023e-08" y="0.5" width="177" height="283" rx="19.5" transform="matrix(0.866025 0.5 -0.866025 0.5 362.792 322.25)" stroke="url(#paint2_linear_157104_98)"/>
</g>
<g filter="url(#filter1_d_157104_98)">
<rect x="-2.05613e-08" y="0.344961" width="177.31" height="283.558" rx="13.4535" transform="matrix(0.866025 0.5 -0.866025 0.5 380.873 240.172)" fill="url(#paint3_linear_157104_98)" stroke="url(#paint4_linear_157104_98)" stroke-width="0.689923"/>
</g>
<g filter="url(#filter2_d_157104_98)">
<g filter="url(#filter3_b_157104_98)">
<rect width="178" height="284.248" rx="13.7985" transform="matrix(0.866025 0.5 -0.866025 0.5 355.166 148)" fill="url(#paint5_linear_157104_98)"/>
<rect x="-2.05613e-08" y="0.344961" width="177.31" height="283.558" rx="13.4535" transform="matrix(0.866025 0.5 -0.866025 0.5 355.465 148.172)" stroke="url(#paint6_linear_157104_98)" stroke-width="0.689923"/>
</g>
<g filter="url(#filter4_b_157104_98)">
<path d="M198.624 238.38L352.776 327.38L287.052 365.326C275.786 371.83 270.153 375.083 263.153 375.083C256.153 375.083 250.519 371.83 239.253 365.326L132.9 303.923C121.633 297.418 116 294.166 116 290.124C116 286.083 121.633 282.83 132.9 276.326L198.624 238.38Z" fill="url(#paint7_linear_157104_98)"/>
</g>
<g filter="url(#filter5_d_157104_98)">
<path d="M195.421 279.711C194.977 279.454 194.653 279.179 194.45 278.886C194.253 278.589 194.196 278.299 194.278 278.017C194.361 277.734 194.592 277.483 194.974 277.263L196.136 277.934C195.875 278.114 195.751 278.314 195.764 278.534C195.783 278.757 195.974 278.974 196.336 279.183C196.71 279.399 197.092 279.516 197.479 279.535C197.873 279.549 198.212 279.474 198.498 279.309C198.721 279.181 198.835 279.038 198.841 278.88C198.854 278.726 198.8 278.57 198.679 278.413C198.565 278.259 198.381 278.057 198.127 277.808C197.809 277.492 197.571 277.223 197.412 276.999C197.266 276.775 197.222 276.537 197.279 276.284C197.336 276.031 197.571 275.785 197.984 275.547C198.365 275.327 198.794 275.19 199.27 275.135C199.746 275.08 200.232 275.107 200.727 275.217C201.223 275.327 201.696 275.512 202.147 275.773C202.788 276.143 203.15 276.539 203.233 276.961C203.328 277.382 203.118 277.767 202.604 278.116L201.404 277.423C201.626 277.272 201.718 277.087 201.68 276.867C201.642 276.647 201.451 276.438 201.108 276.24C200.797 276.06 200.464 275.96 200.108 275.938C199.753 275.916 199.425 275.991 199.127 276.163C198.924 276.28 198.816 276.412 198.803 276.559C198.803 276.706 198.86 276.856 198.975 277.01C199.089 277.164 199.267 277.362 199.508 277.604C199.826 277.927 200.061 278.202 200.213 278.429C200.372 278.66 200.419 278.904 200.356 279.161C200.305 279.417 200.07 279.667 199.651 279.909C199.314 280.103 198.905 280.233 198.422 280.299C197.946 280.369 197.441 280.356 196.907 280.261C196.387 280.165 195.891 279.982 195.421 279.711ZM215.25 283.437L206.667 286.126L205.438 285.417L209.058 281.721L202.571 283.761L201.342 283.063L206.096 278.151L207.248 278.817L203.228 282.722L210.106 280.467L211.326 281.171L207.344 285.065L214.088 282.766L215.25 283.437ZM218.185 285.131L211.564 288.953L210.478 288.326L217.099 284.504L218.185 285.131ZM224.459 288.754L223.573 289.265L220.763 287.643L218.81 288.77L221.001 290.035L220.115 290.547L217.924 289.282L215.028 290.954L213.942 290.327L220.563 286.504L224.459 288.754ZM230.696 292.354L229.81 292.866L228.047 291.848L222.313 295.159L221.227 294.532L226.961 291.221L225.19 290.198L226.075 289.687L230.696 292.354ZM239.786 297.602L235.013 300.358C234.423 300.699 233.775 300.864 233.07 300.853C232.371 300.846 231.73 300.673 231.146 300.336C230.561 299.999 230.26 299.626 230.241 299.219C230.228 298.816 230.517 298.444 231.107 298.103L232.203 298.735C231.917 298.908 231.758 299.084 231.727 299.263C231.701 299.447 231.828 299.619 232.108 299.78C232.387 299.942 232.686 300.015 233.003 300C233.327 299.982 233.632 299.89 233.918 299.725L238.69 296.97L239.786 297.602ZM243.582 299.794L239.362 302.23C238.86 302.52 238.612 302.813 238.618 303.11C238.631 303.411 238.872 303.697 239.342 303.968C239.819 304.243 240.314 304.383 240.829 304.386C241.349 304.394 241.861 304.253 242.362 303.963L246.582 301.526L247.668 302.153L243.467 304.579C242.928 304.891 242.353 305.087 241.743 305.167C241.133 305.248 240.54 305.228 239.962 305.107C239.384 304.986 238.857 304.788 238.38 304.513C237.904 304.238 237.561 303.934 237.351 303.6C237.148 303.27 237.12 302.931 237.266 302.582C237.412 302.234 237.755 301.904 238.295 301.592L242.496 299.167L243.582 299.794ZM245.529 308.64C245.085 308.384 244.761 308.109 244.557 307.815C244.361 307.518 244.303 307.229 244.386 306.946C244.469 306.664 244.7 306.413 245.081 306.193L246.244 306.864C245.983 307.043 245.859 307.243 245.872 307.463C245.891 307.687 246.082 307.903 246.444 308.112C246.818 308.329 247.199 308.446 247.587 308.464C247.981 308.479 248.32 308.404 248.606 308.239C248.828 308.11 248.943 307.967 248.949 307.81C248.962 307.656 248.908 307.5 248.787 307.342C248.673 307.188 248.489 306.987 248.235 306.737C247.917 306.422 247.679 306.152 247.52 305.929C247.374 305.705 247.33 305.467 247.387 305.214C247.444 304.961 247.679 304.715 248.092 304.477C248.473 304.257 248.901 304.119 249.378 304.064C249.854 304.009 250.34 304.037 250.835 304.147C251.331 304.257 251.804 304.442 252.255 304.702C252.896 305.073 253.258 305.469 253.341 305.89C253.436 306.312 253.226 306.697 252.712 307.045L251.512 306.352C251.734 306.202 251.826 306.017 251.788 305.797C251.75 305.577 251.559 305.368 251.216 305.17C250.905 304.99 250.572 304.889 250.216 304.867C249.86 304.845 249.533 304.92 249.235 305.093C249.032 305.21 248.924 305.342 248.911 305.489C248.911 305.635 248.968 305.786 249.082 305.94C249.197 306.094 249.375 306.292 249.616 306.534C249.933 306.856 250.168 307.131 250.321 307.359C250.48 307.59 250.527 307.834 250.464 308.09C250.413 308.347 250.178 308.596 249.759 308.838C249.422 309.033 249.013 309.163 248.53 309.229C248.054 309.298 247.549 309.286 247.015 309.19C246.494 309.095 245.999 308.912 245.529 308.64ZM261.014 309.859L260.128 310.37L258.366 309.353L252.631 312.664L251.545 312.037L257.28 308.726L255.508 307.703L256.394 307.191L261.014 309.859ZM264.153 311.671L257.532 315.493L256.446 314.866L263.067 311.044L264.153 311.671ZM262.873 314.738C263.521 314.364 264.251 314.114 265.064 313.99C265.883 313.869 266.693 313.874 267.493 314.006C268.306 314.138 269.021 314.382 269.637 314.738C270.342 315.145 270.793 315.607 270.989 316.124C271.199 316.641 271.11 317.154 270.723 317.664L269.418 316.91C269.595 316.61 269.618 316.322 269.484 316.047C269.351 315.772 269.084 315.519 268.684 315.288C268.246 315.035 267.757 314.866 267.217 314.782C266.677 314.697 266.125 314.705 265.559 314.804C265.001 314.906 264.477 315.099 263.988 315.381C263.499 315.664 263.165 315.966 262.987 316.289C262.816 316.615 262.8 316.936 262.94 317.251C263.086 317.563 263.378 317.845 263.816 318.098C264.216 318.329 264.654 318.483 265.131 318.56C265.607 318.637 266.106 318.624 266.626 318.522L267.931 319.275C267.049 319.499 266.16 319.55 265.264 319.429C264.375 319.312 263.578 319.05 262.873 318.643C262.251 318.283 261.825 317.873 261.597 317.411C261.374 316.945 261.368 316.476 261.577 316.003C261.793 315.533 262.225 315.112 262.873 314.738ZM275.061 318.981L273.118 320.103L275.404 321.423L274.518 321.934L272.232 320.614L270.203 321.786L272.775 323.271L271.889 323.782L268.231 321.67L274.861 317.842L278.519 319.954L277.633 320.466L275.061 318.981ZM274.551 325.396C274.354 325.282 274.256 325.148 274.256 324.994C274.256 324.84 274.354 324.707 274.551 324.593C274.748 324.479 274.98 324.422 275.246 324.422C275.513 324.422 275.745 324.479 275.942 324.593C276.132 324.703 276.227 324.835 276.227 324.989C276.227 325.143 276.129 325.277 275.932 325.39C275.735 325.504 275.503 325.561 275.237 325.561C274.97 325.561 274.741 325.506 274.551 325.396ZM278.552 323.086C278.355 322.972 278.257 322.838 278.257 322.684C278.257 322.53 278.355 322.397 278.552 322.283C278.749 322.169 278.981 322.112 279.247 322.112C279.514 322.112 279.746 322.169 279.943 322.283C280.133 322.393 280.229 322.525 280.229 322.679C280.229 322.833 280.13 322.967 279.933 323.08C279.736 323.194 279.505 323.251 279.238 323.251C278.971 323.251 278.742 323.196 278.552 323.086ZM187.367 284.339C188.072 284.746 188.552 285.18 188.806 285.642C189.072 286.104 189.095 286.564 188.872 287.023C188.663 287.481 188.221 287.904 187.548 288.293C186.875 288.682 186.145 288.935 185.357 289.052C184.576 289.173 183.785 289.157 182.985 289.003C182.198 288.849 181.451 288.568 180.746 288.161L178.584 286.913L185.205 283.09L187.367 284.339ZM181.632 287.65C182.407 288.097 183.211 288.319 184.043 288.315C184.875 288.311 185.672 288.09 186.434 287.65C187.202 287.206 187.596 286.74 187.615 286.253C187.634 285.765 187.256 285.297 186.481 284.85L185.405 284.229L180.556 287.028L181.632 287.65ZM193.121 288.672L191.178 289.794L193.464 291.114L192.578 291.626L190.292 290.306L188.263 291.477L190.835 292.962L189.949 293.474L186.291 291.362L192.921 287.534L196.579 289.646L195.693 290.157L193.121 288.672ZM197.678 297.937L196.592 297.31L198.269 292.569L193.325 295.423L192.239 294.796L198.869 290.968L199.955 291.595L198.288 296.331L203.223 293.482L204.309 294.109L197.678 297.937ZM211.584 298.32L205.173 299.492L202.772 300.878L201.686 300.251L204.087 298.865L206.106 295.158L207.316 295.856L205.601 298.617L210.384 297.627L211.584 298.32ZM214.484 299.995L207.864 303.817L206.778 303.19L213.398 299.368L214.484 299.995ZM215.682 308.331L214.596 307.704L216.272 302.963L211.328 305.817L210.242 305.19L216.872 301.362L217.958 301.989L216.291 306.725L221.226 303.876L222.312 304.503L215.682 308.331ZM227.568 309.748C227.726 309.459 227.736 309.178 227.596 308.907C227.463 308.632 227.196 308.379 226.796 308.148C226.358 307.895 225.869 307.726 225.329 307.642C224.789 307.557 224.24 307.563 223.681 307.658C223.128 307.757 222.614 307.944 222.138 308.219C221.661 308.494 221.334 308.793 221.156 309.116C220.991 309.438 220.982 309.756 221.128 310.067C221.274 310.379 221.566 310.661 222.004 310.914C222.595 311.255 223.239 311.437 223.938 311.459C224.637 311.481 225.31 311.352 225.958 311.074L223.471 309.638L224.338 309.138L227.987 311.244L227.139 311.734C226.555 311.99 225.897 312.157 225.167 312.234C224.443 312.315 223.713 312.293 222.976 312.168C222.252 312.044 221.601 311.814 221.023 311.481C220.401 311.121 219.975 310.711 219.747 310.249C219.524 309.783 219.518 309.314 219.727 308.841C219.943 308.371 220.375 307.95 221.023 307.576C221.671 307.202 222.401 306.952 223.214 306.828C224.033 306.707 224.843 306.712 225.643 306.844C226.456 306.976 227.171 307.22 227.787 307.576C228.492 307.983 228.943 308.445 229.139 308.962C229.349 309.479 229.26 309.992 228.873 310.502L227.568 309.748ZM235.248 319.627L234.162 319L235.838 314.259L230.894 317.114L229.808 316.487L236.438 312.659L237.524 313.286L235.857 318.021L240.792 315.172L241.878 315.799L235.248 319.627ZM240.58 322.783C239.964 322.427 239.538 322.016 239.303 321.551C239.081 321.085 239.074 320.616 239.284 320.143C239.506 319.67 239.941 319.246 240.589 318.872C241.237 318.498 241.967 318.249 242.78 318.124C243.599 318.003 244.409 318.009 245.209 318.141C246.022 318.273 246.737 318.517 247.353 318.872C247.975 319.232 248.397 319.644 248.62 320.11C248.855 320.575 248.864 321.043 248.648 321.512C248.432 321.982 248.001 322.403 247.353 322.777C246.705 323.151 245.971 323.402 245.152 323.531C244.339 323.655 243.526 323.652 242.713 323.52C241.913 323.388 241.202 323.142 240.58 322.783ZM241.523 322.238C241.961 322.491 242.45 322.66 242.99 322.744C243.536 322.825 244.088 322.814 244.647 322.711C245.219 322.609 245.749 322.416 246.238 322.134C246.727 321.851 247.057 321.547 247.229 321.221C247.407 320.898 247.423 320.581 247.277 320.269C247.131 319.958 246.838 319.675 246.4 319.422C245.962 319.169 245.473 319.001 244.933 318.916C244.393 318.832 243.841 318.839 243.276 318.938C242.717 319.041 242.193 319.233 241.704 319.516C241.215 319.798 240.878 320.102 240.694 320.429C240.522 320.755 240.507 321.076 240.646 321.391C240.792 321.703 241.084 321.985 241.523 322.238ZM252.43 329.624C251.814 329.269 251.388 328.858 251.153 328.392C250.931 327.927 250.925 327.457 251.134 326.984C251.356 326.511 251.792 326.088 252.439 325.714C253.087 325.34 253.817 325.091 254.63 324.966C255.45 324.845 256.259 324.85 257.06 324.982C257.872 325.114 258.587 325.358 259.203 325.714C259.825 326.073 260.248 326.486 260.47 326.951C260.705 327.417 260.714 327.885 260.499 328.354C260.283 328.823 259.851 329.245 259.203 329.619C258.555 329.993 257.822 330.244 257.002 330.372C256.189 330.497 255.377 330.493 254.564 330.361C253.763 330.229 253.052 329.984 252.43 329.624ZM253.373 329.08C253.811 329.333 254.3 329.502 254.84 329.586C255.386 329.667 255.939 329.656 256.497 329.553C257.069 329.45 257.599 329.258 258.088 328.975C258.577 328.693 258.908 328.389 259.079 328.062C259.257 327.74 259.273 327.423 259.127 327.111C258.981 326.799 258.689 326.517 258.25 326.264C257.812 326.011 257.323 325.842 256.783 325.758C256.243 325.674 255.691 325.681 255.126 325.78C254.567 325.883 254.043 326.075 253.554 326.357C253.065 326.64 252.728 326.944 252.544 327.27C252.373 327.597 252.357 327.918 252.496 328.233C252.643 328.545 252.935 328.827 253.373 329.08ZM263.339 335.846L262.253 335.219L263.93 330.478L258.986 333.332L257.9 332.705L264.53 328.877L265.616 329.504L263.949 334.24L268.883 331.391L269.969 332.018L263.339 335.846ZM272.548 334.53L270.605 335.652L272.891 336.972L272.005 337.483L269.719 336.163L267.69 337.335L270.262 338.82L269.376 339.331L265.718 337.219L272.348 333.391L276.006 335.503L275.12 336.015L272.548 334.53ZM174.76 294.06L173.874 294.571L172.111 293.554L166.376 296.865L165.29 296.238L171.025 292.927L169.253 291.904L170.139 291.392L174.76 294.06ZM182.099 298.297L175.478 302.119L174.392 301.492L177.288 299.82L174.173 298.022L171.277 299.694L170.191 299.067L176.812 295.244L177.898 295.871L175.059 297.51L178.174 299.309L181.013 297.67L182.099 298.297ZM184.691 300.805L182.748 301.927L185.034 303.247L184.148 303.759L181.862 302.439L179.833 303.61L182.405 305.095L181.519 305.607L177.861 303.495L184.491 299.667L188.149 301.779L187.263 302.29L184.691 300.805ZM191.516 303.734L184.895 307.556L183.809 306.929L190.43 303.107L191.516 303.734ZM190.712 310.915L191.837 308.506L191.008 308.027L188.359 309.556L187.274 308.929L193.894 305.107L196.181 306.427C196.689 306.72 197.028 307.019 197.2 307.323C197.378 307.631 197.403 307.921 197.276 308.192C197.155 308.467 196.911 308.711 196.543 308.924C196.111 309.173 195.59 309.327 194.98 309.386C194.383 309.445 193.761 309.36 193.113 309.133L192.008 311.663L190.712 310.915ZM191.875 307.527L193.075 308.22C193.481 308.455 193.888 308.572 194.294 308.572C194.707 308.576 195.085 308.478 195.428 308.28C195.771 308.082 195.936 307.87 195.923 307.642C195.917 307.411 195.707 307.177 195.295 306.938L194.094 306.245L191.875 307.527ZM201.111 316.919L202.235 314.51L201.407 314.031L198.758 315.56L197.672 314.933L204.293 311.111L206.579 312.431C207.088 312.724 207.427 313.023 207.599 313.327C207.777 313.635 207.802 313.925 207.675 314.196C207.554 314.471 207.31 314.715 206.941 314.928C206.51 315.177 205.989 315.331 205.379 315.39C204.782 315.448 204.16 315.364 203.512 315.137L202.407 317.667L201.111 316.919ZM202.274 313.531L203.474 314.224C203.88 314.458 204.287 314.576 204.693 314.576C205.106 314.579 205.484 314.482 205.827 314.284C206.17 314.086 206.335 313.874 206.322 313.646C206.316 313.415 206.106 313.181 205.694 312.942L204.493 312.249L202.274 313.531ZM212.351 315.763L205.73 319.585L204.644 318.958L211.265 315.136L212.351 315.763ZM217.616 321.002C217.775 320.713 217.784 320.432 217.644 320.161C217.511 319.886 217.244 319.633 216.844 319.402C216.406 319.149 215.917 318.98 215.377 318.896C214.837 318.812 214.288 318.817 213.729 318.912C213.176 319.011 212.662 319.198 212.186 319.473C211.709 319.748 211.382 320.047 211.205 320.37C211.039 320.693 211.03 321.01 211.176 321.321C211.322 321.633 211.614 321.915 212.052 322.168C212.643 322.509 213.288 322.691 213.986 322.713C214.685 322.735 215.358 322.607 216.006 322.328L213.519 320.892L214.386 320.392L218.035 322.498L217.187 322.988C216.603 323.245 215.945 323.411 215.215 323.488C214.491 323.569 213.761 323.547 213.024 323.422C212.3 323.298 211.649 323.069 211.071 322.735C210.449 322.376 210.023 321.965 209.795 321.503C209.572 321.037 209.566 320.568 209.776 320.095C209.992 319.626 210.423 319.204 211.071 318.83C211.719 318.456 212.449 318.207 213.262 318.082C214.081 317.961 214.891 317.966 215.691 318.098C216.504 318.23 217.219 318.474 217.835 318.83C218.54 319.237 218.991 319.699 219.188 320.216C219.397 320.733 219.308 321.246 218.921 321.756L217.616 321.002ZM228.337 324.992L221.716 328.815L220.63 328.188L223.526 326.516L220.411 324.717L217.515 326.389L216.429 325.762L223.05 321.94L224.136 322.567L221.297 324.206L224.412 326.004L227.251 324.365L228.337 324.992ZM234.997 328.837L234.111 329.349L232.348 328.331L226.613 331.642L225.527 331.015L231.262 327.704L229.49 326.681L230.376 326.17L234.997 328.837ZM230.8 334.136C230.603 334.023 230.504 333.889 230.504 333.735C230.504 333.581 230.603 333.447 230.8 333.333C230.997 333.22 231.228 333.163 231.495 333.163C231.762 333.163 231.994 333.22 232.191 333.333C232.381 333.443 232.476 333.575 232.476 333.729C232.476 333.883 232.378 334.017 232.181 334.131C231.984 334.244 231.752 334.301 231.486 334.301C231.219 334.301 230.99 334.246 230.8 334.136Z" fill="white"/>
</g>
</g>
<path d="M462.791 438.922C444.016 437.66 429.816 421.409 431.078 402.791C432.498 384.016 448.591 369.816 467.367 371.078C485.984 372.498 500.184 388.591 498.922 407.367C497.66 425.984 481.409 440.184 462.791 438.922Z" fill="url(#paint8_radial_157104_98)"/>
<path d="M135.961 472.963C127.125 472.369 120.443 464.722 121.037 455.961C121.705 447.125 129.278 440.443 138.114 441.037C146.875 441.705 153.557 449.278 152.963 458.114C152.369 466.875 144.722 473.557 135.961 472.963Z" fill="url(#paint9_radial_157104_98)"/>
<defs>
<filter id="filter0_b_157104_98" x="117.554" y="318.858" width="397.812" height="237.284" filterUnits="userSpaceOnUse" color-interpolation-filters="sRGB">
<feFlood flood-opacity="0" result="BackgroundImageFix"/>
<feGaussianBlur in="BackgroundImageFix" stdDeviation="4.5"/>
<feComposite in2="SourceAlpha" operator="in" result="effect1_backgroundBlur_157104_98"/>
<feBlend mode="normal" in="SourceGraphic" in2="effect1_backgroundBlur_157104_98" result="shape"/>
</filter>
<filter id="filter1_d_157104_98" x="71.4082" y="183.042" width="526.318" height="363.041" filterUnits="userSpaceOnUse" color-interpolation-filters="sRGB">
<feFlood flood-opacity="0" result="BackgroundImageFix"/>
<feColorMatrix in="SourceAlpha" type="matrix" values="0 0 0 0 0 0 0 0 0 0 0 0 0 0 0 0 0 0 127 0" result="hardAlpha"/>
<feOffset dy="9"/>
<feGaussianBlur stdDeviation="35"/>
<feComposite in2="hardAlpha" operator="out"/>
<feColorMatrix type="matrix" values="0 0 0 0 0 0 0 0 0 0 0 0 0 0 0 0 0 0 0.25 0"/>
<feBlend mode="normal" in2="BackgroundImageFix" result="effect1_dropShadow_157104_98"/>
<feBlend mode="normal" in="SourceGraphic" in2="effect1_dropShadow_157104_98" result="shape"/>
</filter>
<filter id="filter2_d_157104_98" x="80.0001" y="134.042" width="466.318" height="303.041" filterUnits="userSpaceOnUse" color-interpolation-filters="sRGB">
<feFlood flood-opacity="0" result="BackgroundImageFix"/>
<feColorMatrix in="SourceAlpha" type="matrix" values="0 0 0 0 0 0 0 0 0 0 0 0 0 0 0 0 0 0 127 0" result="hardAlpha"/>
<feOffset dx="4" dy="22"/>
<feGaussianBlur stdDeviation="20"/>
<feComposite in2="hardAlpha" operator="out"/>
<feColorMatrix type="matrix" values="0 0 0 0 0 0 0 0 0 0 0 0 0 0 0 0 0 0 0.25 0"/>
<feBlend mode="normal" in2="BackgroundImageFix" result="effect1_dropShadow_157104_98"/>
<feBlend mode="normal" in="SourceGraphic" in2="effect1_dropShadow_157104_98" result="shape"/>
</filter>
<filter id="filter3_b_157104_98" x="109" y="145.042" width="400.318" height="237.041" filterUnits="userSpaceOnUse" color-interpolation-filters="sRGB">
<feFlood flood-opacity="0" result="BackgroundImageFix"/>
<feGaussianBlur in="BackgroundImageFix" stdDeviation="3.5"/>
<feComposite in2="SourceAlpha" operator="in" result="effect1_backgroundBlur_157104_98"/>
<feBlend mode="normal" in="SourceGraphic" in2="effect1_backgroundBlur_157104_98" result="shape"/>
</filter>
<filter id="filter4_b_157104_98" x="109" y="231.38" width="250.776" height="150.703" filterUnits="userSpaceOnUse" color-interpolation-filters="sRGB">
<feFlood flood-opacity="0" result="BackgroundImageFix"/>
<feGaussianBlur in="BackgroundImageFix" stdDeviation="3.5"/>
<feComposite in2="SourceAlpha" operator="in" result="effect1_backgroundBlur_157104_98"/>
<feBlend mode="normal" in="SourceGraphic" in2="effect1_backgroundBlur_157104_98" result="shape"/>
</filter>
<filter id="filter5_d_157104_98" x="162.452" y="274.343" width="129.353" height="75.5272" filterUnits="userSpaceOnUse" color-interpolation-filters="sRGB">
<feFlood flood-opacity="0" result="BackgroundImageFix"/>
<feColorMatrix in="SourceAlpha" type="matrix" values="0 0 0 0 0 0 0 0 0 0 0 0 0 0 0 0 0 0 127 0" result="hardAlpha"/>
<feOffset dy="1"/>
<feGaussianBlur stdDeviation="0.5"/>
<feComposite in2="hardAlpha" operator="out"/>
<feColorMatrix type="matrix" values="0 0 0 0 0 0 0 0 0 0 0 0 0 0 0 0 0 0 0.15 0"/>
<feBlend mode="normal" in2="BackgroundImageFix" result="effect1_dropShadow_157104_98"/>
<feBlend mode="normal" in="SourceGraphic" in2="effect1_dropShadow_157104_98" result="shape"/>
</filter>
<radialGradient id="paint0_radial_157104_98" cx="0" cy="0" r="1" gradientUnits="userSpaceOnUse" gradientTransform="translate(129.868 36.0489) rotate(93.8705) scale(64.9684)">
<stop offset="0.00887753" stop-color="#DEF9FA"/>
<stop offset="0.1723" stop-color="#BEF3F5"/>
<stop offset="0.4204" stop-color="#9DEDF0"/>
<stop offset="0.5512" stop-color="#7DE7EB"/>
<stop offset="0.7154" stop-color="#5CE1E6"/>
<stop offset="1" stop-color="#33BBCF"/>
</radialGradient>
<linearGradient id="paint1_linear_157104_98" x1="-55.9589" y1="-198.041" x2="78.9749" y2="295.841" gradientUnits="userSpaceOnUse">
<stop stop-color="white" stop-opacity="0.7"/>
<stop offset="0.667914" stop-color="#F9F9F9" stop-opacity="0.175336"/>
<stop offset="1" stop-color="#F9F9F9" stop-opacity="0.1"/>
<stop offset="1" stop-color="white" stop-opacity="0.2"/>
</linearGradient>
<linearGradient id="paint2_linear_157104_98" x1="-3.5" y1="-9.24422e-07" x2="175" y2="284" gradientUnits="userSpaceOnUse">
<stop stop-color="white"/>
<stop offset="1" stop-color="white" stop-opacity="0.1"/>
</linearGradient>
<linearGradient id="paint3_linear_157104_98" x1="0" y1="0" x2="178" y2="284.248" gradientUnits="userSpaceOnUse">
<stop stop-color="white" stop-opacity="0.4"/>
<stop offset="1" stop-color="white" stop-opacity="0.1"/>
</linearGradient>
<linearGradient id="paint4_linear_157104_98" x1="-1.21225e-06" y1="9.5" x2="167.5" y2="284" gradientUnits="userSpaceOnUse">
<stop stop-color="white"/>
<stop offset="1" stop-color="white" stop-opacity="0.1"/>
</linearGradient>
<linearGradient id="paint5_linear_157104_98" x1="0" y1="0" x2="178" y2="284.248" gradientUnits="userSpaceOnUse">
<stop stop-color="white" stop-opacity="0.4"/>
<stop offset="1" stop-color="white" stop-opacity="0.1"/>
</linearGradient>
<linearGradient id="paint6_linear_157104_98" x1="-1.21225e-06" y1="9.5" x2="167.5" y2="284" gradientUnits="userSpaceOnUse">
<stop stop-color="white"/>
<stop offset="1" stop-color="white" stop-opacity="0.1"/>
</linearGradient>
<linearGradient id="paint7_linear_157104_98" x1="177.499" y1="58.5" x2="344.067" y2="399.832" gradientUnits="userSpaceOnUse">
<stop stop-color="#5AE5EA"/>
<stop offset="0.29487" stop-color="#5AE5EA" stop-opacity="0"/>
<stop offset="1" stop-color="#5AE5EA"/>
</linearGradient>
<radialGradient id="paint8_radial_157104_98" cx="0" cy="0" r="1" gradientUnits="userSpaceOnUse" gradientTransform="translate(479.387 395.271) rotate(93.8705) scale(43.7411)">
<stop offset="0.00887753" stop-color="#DEF9FA"/>
<stop offset="0.1723" stop-color="#BEF3F5"/>
<stop offset="0.4204" stop-color="#9DEDF0"/>
<stop offset="0.5512" stop-color="#7DE7EB"/>
<stop offset="0.7154" stop-color="#5CE1E6"/>
<stop offset="1" stop-color="#33BBCF"/>
</radialGradient>
<radialGradient id="paint9_radial_157104_98" cx="0" cy="0" r="1" gradientUnits="userSpaceOnUse" gradientTransform="translate(143.77 452.421) rotate(93.8705) scale(20.5841)">
<stop offset="0.00887753" stop-color="#DEF9FA"/>
<stop offset="0.1723" stop-color="#BEF3F5"/>
<stop offset="0.4204" stop-color="#9DEDF0"/>
<stop offset="0.5512" stop-color="#7DE7EB"/>
<stop offset="0.7154" stop-color="#5CE1E6"/>
<stop offset="1" stop-color="#33BBCF"/>
</radialGradient>
</defs>
</svg>
